<svg xmlns="http://www.w3.org/2000/svg" viewBox="0 0 800 600" width="800" height="600"><title>Small pile of household waste</title><rect width="800" height="300" fill="#D8CDB9"/><rect x="-38" y="2" width="76" height="26" rx="2" fill="#D4C8B2"/><rect x="42" y="2" width="76" height="26" rx="2" fill="#CFC2AB"/><rect x="122" y="2" width="76" height="26" rx="2" fill="#C9BBA2"/><rect x="202" y="2" width="76" height="26" rx="2" fill="#CFC2AB"/><rect x="282" y="2" width="76" height="26" rx="2" fill="#DCD1BE"/><rect x="362" y="2" width="76" height="26" rx="2" fill="#DCD1BE"/><rect x="442" y="2" width="76" height="26" rx="2" fill="#DCD1BE"/><rect x="522" y="2" width="76" height="26" rx="2" fill="#DCD1BE"/><rect x="602" y="2" width="76" height="26" rx="2" fill="#D4C8B2"/><rect x="682" y="2" width="76" height="26" rx="2" fill="#CFC2AB"/><rect x="762" y="2" width="76" height="26" rx="2" fill="#DCD1BE"/><rect x="2" y="32" width="76" height="26" rx="2" fill="#CFC2AB"/><rect x="82" y="32" width="76" height="26" rx="2" fill="#DCD1BE"/><rect x="162" y="32" width="76" height="26" rx="2" fill="#DCD1BE"/><rect x="242" y="32" width="76" height="26" rx="2" fill="#CFC2AB"/><rect x="322" y="32" width="76" height="26" rx="2" fill="#DCD1BE"/><rect x="402" y="32" width="76" height="26" rx="2" fill="#C9BBA2"/><rect x="482" y="32" width="76" height="26" rx="2" fill="#D4C8B2"/><rect x="562" y="32" width="76" height="26" rx="2" fill="#CFC2AB"/><rect x="642" y="32" width="76" height="26" rx="2" fill="#C9BBA2"/><rect x="722" y="32" width="76" height="26" rx="2" fill="#CFC2AB"/><rect x="802" y="32" width="76" height="26" rx="2" fill="#CFC2AB"/><rect x="-38" y="62" width="76" height="26" rx="2" fill="#CFC2AB"/><rect x="42" y="62" width="76" height="26" rx="2" fill="#CFC2AB"/><rect x="122" y="62" width="76" height="26" rx="2" fill="#DCD1BE"/><rect x="202" y="62" width="76" height="26" rx="2" fill="#D4C8B2"/><rect x="282" y="62" width="76" height="26" rx="2" fill="#DCD1BE"/><rect x="362" y="62" width="76" height="26" rx="2" fill="#CFC2AB"/><rect x="442" y="62" width="76" height="26" rx="2" fill="#D4C8B2"/><rect x="522" y="62" width="76" height="26" rx="2" fill="#DCD1BE"/><rect x="602" y="62" width="76" height="26" rx="2" fill="#DCD1BE"/><rect x="682" y="62" width="76" height="26" rx="2" fill="#D4C8B2"/><rect x="762" y="62" width="76" height="26" rx="2" fill="#C9BBA2"/><rect x="2" y="92" width="76" height="26" rx="2" fill="#D4C8B2"/><rect x="82" y="92" width="76" height="26" rx="2" fill="#D4C8B2"/><rect x="162" y="92" width="76" height="26" rx="2" fill="#DCD1BE"/><rect x="242" y="92" width="76" height="26" rx="2" fill="#C9BBA2"/><rect x="322" y="92" width="76" height="26" rx="2" fill="#CFC2AB"/><rect x="402" y="92" width="76" height="26" rx="2" fill="#DCD1BE"/><rect x="482" y="92" width="76" height="26" rx="2" fill="#CFC2AB"/><rect x="562" y="92" width="76" height="26" rx="2" fill="#D4C8B2"/><rect x="642" y="92" width="76" height="26" rx="2" fill="#C9BBA2"/><rect x="722" y="92" width="76" height="26" rx="2" fill="#CFC2AB"/><rect x="802" y="92" width="76" height="26" rx="2" fill="#C9BBA2"/><rect x="-38" y="122" width="76" height="26" rx="2" fill="#DCD1BE"/><rect x="42" y="122" width="76" height="26" rx="2" fill="#D4C8B2"/><rect x="122" y="122" width="76" height="26" rx="2" fill="#C9BBA2"/><rect x="202" y="122" width="76" height="26" rx="2" fill="#C9BBA2"/><rect x="282" y="122" width="76" height="26" rx="2" fill="#DCD1BE"/><rect x="362" y="122" width="76" height="26" rx="2" fill="#DCD1BE"/><rect x="442" y="122" width="76" height="26" rx="2" fill="#CFC2AB"/><rect x="522" y="122" width="76" height="26" rx="2" fill="#DCD1BE"/><rect x="602" y="122" width="76" height="26" rx="2" fill="#D4C8B2"/><rect x="682" y="122" width="76" height="26" rx="2" fill="#DCD1BE"/><rect x="762" y="122" width="76" height="26" rx="2" fill="#DCD1BE"/><rect x="2" y="152" width="76" height="26" rx="2" fill="#D4C8B2"/><rect x="82" y="152" width="76" height="26" rx="2" fill="#C9BBA2"/><rect x="162" y="152" width="76" height="26" rx="2" fill="#C9BBA2"/><rect x="242" y="152" width="76" height="26" rx="2" fill="#CFC2AB"/><rect x="322" y="152" width="76" height="26" rx="2" fill="#DCD1BE"/><rect x="402" y="152" width="76" height="26" rx="2" fill="#CFC2AB"/><rect x="482" y="152" width="76" height="26" rx="2" fill="#D4C8B2"/><rect x="562" y="152" width="76" height="26" rx="2" fill="#DCD1BE"/><rect x="642" y="152" width="76" height="26" rx="2" fill="#C9BBA2"/><rect x="722" y="152" width="76" height="26" rx="2" fill="#DCD1BE"/><rect x="802" y="152" width="76" height="26" rx="2" fill="#CFC2AB"/><rect x="-38" y="182" width="76" height="26" rx="2" fill="#DCD1BE"/><rect x="42" y="182" width="76" height="26" rx="2" fill="#CFC2AB"/><rect x="122" y="182" width="76" height="26" rx="2" fill="#C9BBA2"/><rect x="202" y="182" width="76" height="26" rx="2" fill="#DCD1BE"/><rect x="282" y="182" width="76" height="26" rx="2" fill="#D4C8B2"/><rect x="362" y="182" width="76" height="26" rx="2" fill="#D4C8B2"/><rect x="442" y="182" width="76" height="26" rx="2" fill="#D4C8B2"/><rect x="522" y="182" width="76" height="26" rx="2" fill="#CFC2AB"/><rect x="602" y="182" width="76" height="26" rx="2" fill="#D4C8B2"/><rect x="682" y="182" width="76" height="26" rx="2" fill="#D4C8B2"/><rect x="762" y="182" width="76" height="26" rx="2" fill="#DCD1BE"/><rect x="2" y="212" width="76" height="26" rx="2" fill="#C9BBA2"/><rect x="82" y="212" width="76" height="26" rx="2" fill="#C9BBA2"/><rect x="162" y="212" width="76" height="26" rx="2" fill="#DCD1BE"/><rect x="242" y="212" width="76" height="26" rx="2" fill="#C9BBA2"/><rect x="322" y="212" width="76" height="26" rx="2" fill="#CFC2AB"/><rect x="402" y="212" width="76" height="26" rx="2" fill="#DCD1BE"/><rect x="482" y="212" width="76" height="26" rx="2" fill="#D4C8B2"/><rect x="562" y="212" width="76" height="26" rx="2" fill="#D4C8B2"/><rect x="642" y="212" width="76" height="26" rx="2" fill="#DCD1BE"/><rect x="722" y="212" width="76" height="26" rx="2" fill="#CFC2AB"/><rect x="802" y="212" width="76" height="26" rx="2" fill="#DCD1BE"/><rect x="-38" y="242" width="76" height="26" rx="2" fill="#C9BBA2"/><rect x="42" y="242" width="76" height="26" rx="2" fill="#D4C8B2"/><rect x="122" y="242" width="76" height="26" rx="2" fill="#DCD1BE"/><rect x="202" y="242" width="76" height="26" rx="2" fill="#DCD1BE"/><rect x="282" y="242" width="76" height="26" rx="2" fill="#C9BBA2"/><rect x="362" y="242" width="76" height="26" rx="2" fill="#DCD1BE"/><rect x="442" y="242" width="76" height="26" rx="2" fill="#C9BBA2"/><rect x="522" y="242" width="76" height="26" rx="2" fill="#CFC2AB"/><rect x="602" y="242" width="76" height="26" rx="2" fill="#C9BBA2"/><rect x="682" y="242" width="76" height="26" rx="2" fill="#DCD1BE"/><rect x="762" y="242" width="76" height="26" rx="2" fill="#CFC2AB"/><rect x="2" y="272" width="76" height="26" rx="2" fill="#D4C8B2"/><rect x="82" y="272" width="76" height="26" rx="2" fill="#D4C8B2"/><rect x="162" y="272" width="76" height="26" rx="2" fill="#D4C8B2"/><rect x="242" y="272" width="76" height="26" rx="2" fill="#CFC2AB"/><rect x="322" y="272" width="76" height="26" rx="2" fill="#C9BBA2"/><rect x="402" y="272" width="76" height="26" rx="2" fill="#CFC2AB"/><rect x="482" y="272" width="76" height="26" rx="2" fill="#CFC2AB"/><rect x="562" y="272" width="76" height="26" rx="2" fill="#CFC2AB"/><rect x="642" y="272" width="76" height="26" rx="2" fill="#CFC2AB"/><rect x="722" y="272" width="76" height="26" rx="2" fill="#DCD1BE"/><rect x="802" y="272" width="76" height="26" rx="2" fill="#CFC2AB"/><rect y="286" width="800" height="18" fill="#B9AD98"/><path d="M0 304H800V600H0Z" fill="#B7B1A6"/><path d="M0 304 L-60 600" stroke="#A7A196" stroke-width="3"/><path d="M100 304 L40 600" stroke="#A7A196" stroke-width="3"/><path d="M200 304 L140 600" stroke="#A7A196" stroke-width="3"/><path d="M300 304 L240 600" stroke="#A7A196" stroke-width="3"/><path d="M400 304 L340 600" stroke="#A7A196" stroke-width="3"/><path d="M500 304 L440 600" stroke="#A7A196" stroke-width="3"/><path d="M600 304 L540 600" stroke="#A7A196" stroke-width="3"/><path d="M700 304 L640 600" stroke="#A7A196" stroke-width="3"/><path d="M0 540H800V600H0Z" fill="#6B6F76"/><path d="M0 536H800" stroke="#E6E1D6" stroke-width="8"/><path d="M650 60v230" stroke="#6E6A62" stroke-width="10"/><rect x="598" y="40" width="104" height="44" rx="6" fill="#1F5D3A"/><text x="650" y="69" font-family="Arial" font-size="15" font-weight="700" fill="#fff" text-anchor="middle">KEEP CLEAN</text><ellipse cx="405.0" cy="476" rx="90.48" ry="13.68" fill="#000" opacity=".18"/><g transform="rotate(4.042604217502792 370.3484422866317 442.9210658418692)"><ellipse cx="370.3484422866317" cy="442.9210658418692" rx="18.426053928555604" ry="19.187750751997292" fill="#15161A"/><ellipse cx="364.820626108065" cy="435.2459655410703" rx="6.449118874994461" ry="3.8375501503994585" fill="#fff" opacity=".12"/><path d="M362.3484422866317 427.73331508987195 q8 -22 16 0" fill="#15161A" stroke="#15161A" stroke-width="4"/></g><g transform="rotate(24.78224177552314 418.9644818656246 463.70264881056346)"><ellipse cx="418.9644818656246" cy="463.70264881056346" rx="19.635249872199683" ry="18.703155932851868" fill="#2B3A2E"/><ellipse cx="413.07390690396466" cy="456.2213864374227" rx="6.872337455269888" ry="3.740631186570374" fill="#fff" opacity=".12"/><path d="M410.9644818656246 448.9994928777116 q8 -22 16 0" fill="#2B3A2E" stroke="#2B3A2E" stroke-width="4"/></g><g transform="rotate(-13.403899731166419 401.0676462347685 459.57830272264016)"><ellipse cx="401.0676462347685" cy="459.57830272264016" rx="19.721982081957897" ry="19.508301441762757" fill="#2B3A2E"/><ellipse cx="395.1510516101811" cy="451.77498214593504" rx="6.902693728685263" ry="3.9016602883525517" fill="#fff" opacity=".12"/><path d="M393.0676462347685 444.0700012808774 q8 -22 16 0" fill="#2B3A2E" stroke="#2B3A2E" stroke-width="4"/></g><g transform="rotate(-17.030003011885942 358.93054304890563 464.6726218910614)"><ellipse cx="358.93054304890563" cy="464.6726218910614" rx="18.669429260406254" ry="13.818138244474476" fill="#1E1F22"/><ellipse cx="353.32971427078377" cy="459.1453665932716" rx="6.534300241142189" ry="2.763627648894895" fill="#fff" opacity=".12"/><path d="M350.93054304890563 454.8544836465869 q8 -22 16 0" fill="#1E1F22" stroke="#1E1F22" stroke-width="4"/></g><g transform="rotate(-1.3625455667266593 465.4994128215835 414.3389746723492)"><ellipse cx="465.4994128215835" cy="414.3389746723492" rx="23.421331637037717" ry="21.190963062447373" fill="#23324A"/><ellipse cx="458.4730133304722" cy="405.8625894473702" rx="8.1974660729632" ry="4.238192612489475" fill="#fff" opacity=".12"/><path d="M457.4994128215835 397.1480116099018 q8 -22 16 0" fill="#23324A" stroke="#23324A" stroke-width="4"/></g><rect x="429" y="472" width="23" height="9" rx="2" fill="#C9A26B" transform="rotate(18 429 472)"/><rect x="407" y="476" width="24" height="7" rx="2" fill="#E9C46A" transform="rotate(-29 407 476)"/><rect x="351" y="476" width="22" height="13" rx="2" fill="#8FB3D9" transform="rotate(-6 351 476)"/><rect x="446" y="457" width="19" height="11" rx="2" fill="#FFFFFF" transform="rotate(32 446 457)"/><rect x="423" y="475" width="26" height="11" rx="2" fill="#D96C4F" transform="rotate(-27 423 475)"/><rect x="451" y="476" width="19" height="12" rx="2" fill="#FFFFFF" transform="rotate(-23 451 476)"/><rect x="446" y="457" width="12" height="10" rx="2" fill="#D96C4F" transform="rotate(11 446 457)"/><rect x="392" y="446" width="17" height="7" rx="2" fill="#F4F1EA" transform="rotate(-16 392 446)"/><rect x="436" y="472" width="20" height="12" rx="2" fill="#F4F1EA" transform="rotate(-10 436 472)"/><rect x="408" y="456" width="18" height="14" rx="2" fill="#D96C4F" transform="rotate(-15 408 456)"/><g transform="rotate(-66 338 466)"><rect x="338" y="466" width="34" height="12" rx="5" fill="#7FB8A4" opacity=".85"/><rect x="370" y="469" width="8" height="6" fill="#5E8F7E"/></g></svg>