<svg xmlns="http://www.w3.org/2000/svg" viewBox="0 0 800 600" width="800" height="600"><title>Roadside after garbage was cleared</title><rect width="800" height="300" fill="#D8CDB9"/><rect x="-38" y="2" width="76" height="26" rx="2" fill="#D4C8B2"/><rect x="42" y="2" width="76" height="26" rx="2" fill="#CFC2AB"/><rect x="122" y="2" width="76" height="26" rx="2" fill="#C9BBA2"/><rect x="202" y="2" width="76" height="26" rx="2" fill="#CFC2AB"/><rect x="282" y="2" width="76" height="26" rx="2" fill="#DCD1BE"/><rect x="362" y="2" width="76" height="26" rx="2" fill="#DCD1BE"/><rect x="442" y="2" width="76" height="26" rx="2" fill="#DCD1BE"/><rect x="522" y="2" width="76" height="26" rx="2" fill="#DCD1BE"/><rect x="602" y="2" width="76" height="26" rx="2" fill="#D4C8B2"/><rect x="682" y="2" width="76" height="26" rx="2" fill="#CFC2AB"/><rect x="762" y="2" width="76" height="26" rx="2" fill="#DCD1BE"/><rect x="2" y="32" width="76" height="26" rx="2" fill="#CFC2AB"/><rect x="82" y="32" width="76" height="26" rx="2" fill="#DCD1BE"/><rect x="162" y="32" width="76" height="26" rx="2" fill="#DCD1BE"/><rect x="242" y="32" width="76" height="26" rx="2" fill="#CFC2AB"/><rect x="322" y="32" width="76" height="26" rx="2" fill="#DCD1BE"/><rect x="402" y="32" width="76" height="26" rx="2" fill="#C9BBA2"/><rect x="482" y="32" width="76" height="26" rx="2" fill="#D4C8B2"/><rect x="562" y="32" width="76" height="26" rx="2" fill="#CFC2AB"/><rect x="642" y="32" width="76" height="26" rx="2" fill="#C9BBA2"/><rect x="722" y="32" width="76" height="26" rx="2" fill="#CFC2AB"/><rect x="802" y="32" width="76" height="26" rx="2" fill="#CFC2AB"/><rect x="-38" y="62" width="76" height="26" rx="2" fill="#CFC2AB"/><rect x="42" y="62" width="76" height="26" rx="2" fill="#CFC2AB"/><rect x="122" y="62" width="76" height="26" rx="2" fill="#DCD1BE"/><rect x="202" y="62" width="76" height="26" rx="2" fill="#D4C8B2"/><rect x="282" y="62" width="76" height="26" rx="2" fill="#DCD1BE"/><rect x="362" y="62" width="76" height="26" rx="2" fill="#CFC2AB"/><rect x="442" y="62" width="76" height="26" rx="2" fill="#D4C8B2"/><rect x="522" y="62" width="76" height="26" rx="2" fill="#DCD1BE"/><rect x="602" y="62" width="76" height="26" rx="2" fill="#DCD1BE"/><rect x="682" y="62" width="76" height="26" rx="2" fill="#D4C8B2"/><rect x="762" y="62" width="76" height="26" rx="2" fill="#C9BBA2"/><rect x="2" y="92" width="76" height="26" rx="2" fill="#D4C8B2"/><rect x="82" y="92" width="76" height="26" rx="2" fill="#D4C8B2"/><rect x="162" y="92" width="76" height="26" rx="2" fill="#DCD1BE"/><rect x="242" y="92" width="76" height="26" rx="2" fill="#C9BBA2"/><rect x="322" y="92" width="76" height="26" rx="2" fill="#CFC2AB"/><rect x="402" y="92" width="76" height="26" rx="2" fill="#DCD1BE"/><rect x="482" y="92" width="76" height="26" rx="2" fill="#CFC2AB"/><rect x="562" y="92" width="76" height="26" rx="2" fill="#D4C8B2"/><rect x="642" y="92" width="76" height="26" rx="2" fill="#C9BBA2"/><rect x="722" y="92" width="76" height="26" rx="2" fill="#CFC2AB"/><rect x="802" y="92" width="76" height="26" rx="2" fill="#C9BBA2"/><rect x="-38" y="122" width="76" height="26" rx="2" fill="#DCD1BE"/><rect x="42" y="122" width="76" height="26" rx="2" fill="#D4C8B2"/><rect x="122" y="122" width="76" height="26" rx="2" fill="#C9BBA2"/><rect x="202" y="122" width="76" height="26" rx="2" fill="#C9BBA2"/><rect x="282" y="122" width="76" height="26" rx="2" fill="#DCD1BE"/><rect x="362" y="122" width="76" height="26" rx="2" fill="#DCD1BE"/><rect x="442" y="122" width="76" height="26" rx="2" fill="#CFC2AB"/><rect x="522" y="122" width="76" height="26" rx="2" fill="#DCD1BE"/><rect x="602" y="122" width="76" height="26" rx="2" fill="#D4C8B2"/><rect x="682" y="122" width="76" height="26" rx="2" fill="#DCD1BE"/><rect x="762" y="122" width="76" height="26" rx="2" fill="#DCD1BE"/><rect x="2" y="152" width="76" height="26" rx="2" fill="#D4C8B2"/><rect x="82" y="152" width="76" height="26" rx="2" fill="#C9BBA2"/><rect x="162" y="152" width="76" height="26" rx="2" fill="#C9BBA2"/><rect x="242" y="152" width="76" height="26" rx="2" fill="#CFC2AB"/><rect x="322" y="152" width="76" height="26" rx="2" fill="#DCD1BE"/><rect x="402" y="152" width="76" height="26" rx="2" fill="#CFC2AB"/><rect x="482" y="152" width="76" height="26" rx="2" fill="#D4C8B2"/><rect x="562" y="152" width="76" height="26" rx="2" fill="#DCD1BE"/><rect x="642" y="152" width="76" height="26" rx="2" fill="#C9BBA2"/><rect x="722" y="152" width="76" height="26" rx="2" fill="#DCD1BE"/><rect x="802" y="152" width="76" height="26" rx="2" fill="#CFC2AB"/><rect x="-38" y="182" width="76" height="26" rx="2" fill="#DCD1BE"/><rect x="42" y="182" width="76" height="26" rx="2" fill="#CFC2AB"/><rect x="122" y="182" width="76" height="26" rx="2" fill="#C9BBA2"/><rect x="202" y="182" width="76" height="26" rx="2" fill="#DCD1BE"/><rect x="282" y="182" width="76" height="26" rx="2" fill="#D4C8B2"/><rect x="362" y="182" width="76" height="26" rx="2" fill="#D4C8B2"/><rect x="442" y="182" width="76" height="26" rx="2" fill="#D4C8B2"/><rect x="522" y="182" width="76" height="26" rx="2" fill="#CFC2AB"/><rect x="602" y="182" width="76" height="26" rx="2" fill="#D4C8B2"/><rect x="682" y="182" width="76" height="26" rx="2" fill="#D4C8B2"/><rect x="762" y="182" width="76" height="26" rx="2" fill="#DCD1BE"/><rect x="2" y="212" width="76" height="26" rx="2" fill="#C9BBA2"/><rect x="82" y="212" width="76" height="26" rx="2" fill="#C9BBA2"/><rect x="162" y="212" width="76" height="26" rx="2" fill="#DCD1BE"/><rect x="242" y="212" width="76" height="26" rx="2" fill="#C9BBA2"/><rect x="322" y="212" width="76" height="26" rx="2" fill="#CFC2AB"/><rect x="402" y="212" width="76" height="26" rx="2" fill="#DCD1BE"/><rect x="482" y="212" width="76" height="26" rx="2" fill="#D4C8B2"/><rect x="562" y="212" width="76" height="26" rx="2" fill="#D4C8B2"/><rect x="642" y="212" width="76" height="26" rx="2" fill="#DCD1BE"/><rect x="722" y="212" width="76" height="26" rx="2" fill="#CFC2AB"/><rect x="802" y="212" width="76" height="26" rx="2" fill="#DCD1BE"/><rect x="-38" y="242" width="76" height="26" rx="2" fill="#C9BBA2"/><rect x="42" y="242" width="76" height="26" rx="2" fill="#D4C8B2"/><rect x="122" y="242" width="76" height="26" rx="2" fill="#DCD1BE"/><rect x="202" y="242" width="76" height="26" rx="2" fill="#DCD1BE"/><rect x="282" y="242" width="76" height="26" rx="2" fill="#C9BBA2"/><rect x="362" y="242" width="76" height="26" rx="2" fill="#DCD1BE"/><rect x="442" y="242" width="76" height="26" rx="2" fill="#C9BBA2"/><rect x="522" y="242" width="76" height="26" rx="2" fill="#CFC2AB"/><rect x="602" y="242" width="76" height="26" rx="2" fill="#C9BBA2"/><rect x="682" y="242" width="76" height="26" rx="2" fill="#DCD1BE"/><rect x="762" y="242" width="76" height="26" rx="2" fill="#CFC2AB"/><rect x="2" y="272" width="76" height="26" rx="2" fill="#D4C8B2"/><rect x="82" y="272" width="76" height="26" rx="2" fill="#D4C8B2"/><rect x="162" y="272" width="76" height="26" rx="2" fill="#D4C8B2"/><rect x="242" y="272" width="76" height="26" rx="2" fill="#CFC2AB"/><rect x="322" y="272" width="76" height="26" rx="2" fill="#C9BBA2"/><rect x="402" y="272" width="76" height="26" rx="2" fill="#CFC2AB"/><rect x="482" y="272" width="76" height="26" rx="2" fill="#CFC2AB"/><rect x="562" y="272" width="76" height="26" rx="2" fill="#CFC2AB"/><rect x="642" y="272" width="76" height="26" rx="2" fill="#CFC2AB"/><rect x="722" y="272" width="76" height="26" rx="2" fill="#DCD1BE"/><rect x="802" y="272" width="76" height="26" rx="2" fill="#CFC2AB"/><rect y="286" width="800" height="18" fill="#B9AD98"/><path d="M0 304H800V600H0Z" fill="#B7B1A6"/><path d="M0 304 L-60 600" stroke="#A7A196" stroke-width="3"/><path d="M100 304 L40 600" stroke="#A7A196" stroke-width="3"/><path d="M200 304 L140 600" stroke="#A7A196" stroke-width="3"/><path d="M300 304 L240 600" stroke="#A7A196" stroke-width="3"/><path d="M400 304 L340 600" stroke="#A7A196" stroke-width="3"/><path d="M500 304 L440 600" stroke="#A7A196" stroke-width="3"/><path d="M600 304 L540 600" stroke="#A7A196" stroke-width="3"/><path d="M700 304 L640 600" stroke="#A7A196" stroke-width="3"/><path d="M0 540H800V600H0Z" fill="#6B6F76"/><path d="M0 536H800" stroke="#E6E1D6" stroke-width="8"/><path d="M650 60v230" stroke="#6E6A62" stroke-width="10"/><rect x="598" y="40" width="104" height="44" rx="6" fill="#1F5D3A"/><text x="650" y="69" font-family="Arial" font-size="15" font-weight="700" fill="#fff" text-anchor="middle">KEEP CLEAN</text><ellipse cx="390" cy="470" rx="200" ry="30" fill="#A9A397" opacity=".6"/></svg>